<svg xmlns="http://www.w3.org/2000/svg" xmlns:xlink="http://www.w3.org/1999/xlink" version="1.1" x="0px" y="0px" viewBox="0 0 66 82.5" style="enable-background:new 0 0 66 66;" xml:space="preserve"><path d="M52.53,23.95h6.83c0.14,0,0.26-0.11,0.26-0.26v-2.98c0-0.14-0.11-0.26-0.26-0.26h-6.83c-0.14,0-0.26,0.11-0.26,0.26v2.98  C52.28,23.84,52.39,23.95,52.53,23.95z"/><path d="M17.78,28.54c3.05-5.21,8.69-8.72,15.15-8.72c6.45,0,12.09,3.51,15.14,8.72h16.8v-7.06c0-2.62-2.13-4.75-4.75-4.75H5.89  c-2.62,0-4.75,2.13-4.75,4.75v7.06H17.78z M50.28,20.72c0-1.24,1.01-2.25,2.25-2.25h6.83c1.24,0,2.25,1.01,2.25,2.25v2.98  c0,1.24-1.01,2.25-2.25,2.25h-6.83c-1.24,0-2.25-1.01-2.25-2.25V20.72z"/><path d="M32.92,46.67c5.13,0,9.31-4.17,9.31-9.31s-4.17-9.31-9.31-9.31c-5.14,0-9.31,4.17-9.31,9.31S27.79,46.67,32.92,46.67z   M33.92,30.57c3.19,0,5.79,2.6,5.79,5.79c0,0.55-0.45,1-1,1s-1-0.45-1-1c0-2.09-1.7-3.79-3.79-3.79c-0.55,0-1-0.45-1-1  S33.37,30.57,33.92,30.57z"/><path d="M57.02,13.03c0-0.88-0.71-1.59-1.59-1.59c-0.88,0-1.59,0.71-1.59,1.59v1.71h3.18V13.03z"/><path d="M43.06,9.38c-0.65-0.86-1.67-1.37-2.74-1.37H26.15c-1.07,0-2.1,0.51-2.74,1.37l-4.03,5.35h27.7L43.06,9.38z"/><path d="M12.6,14.05c0-0.88-0.71-1.59-1.59-1.59c-0.88,0-1.59,0.71-1.59,1.59v0.68h3.18V14.05z"/><path d="M15.37,37.36c0-2.42,0.49-4.73,1.38-6.83H1.14v13.65h15.62C15.86,42.09,15.37,39.78,15.37,37.36z"/><path d="M64.86,44.19V30.53H49.08c0.89,2.1,1.38,4.41,1.38,6.83c0,2.42-0.49,4.73-1.38,6.83H64.86z"/><path d="M32.92,52.91c8.57,0,15.55-6.97,15.55-15.55s-6.97-15.55-15.55-15.55c-8.58,0-15.56,6.97-15.56,15.55  S24.34,52.91,32.92,52.91z M32.92,26.06c6.23,0,11.3,5.07,11.3,11.3c0,6.23-5.07,11.3-11.3,11.3c-6.24,0-11.31-5.07-11.31-11.3  C21.61,31.13,26.68,26.06,32.92,26.06z"/><path d="M48.06,46.18c-3.05,5.21-8.68,8.72-15.14,8.72c-6.46,0-12.1-3.51-15.15-8.72H1.14v7.06c0,2.62,2.13,4.75,4.75,4.75h54.23  c2.62,0,4.75-2.13,4.75-4.75v-7.06H48.06z"/><text x="0" y="81" fill="#000000" font-size="5px" font-weight="bold" font-family="'Helvetica Neue', Helvetica, Arial-Unicode, Arial, Sans-serif">Created by Candy Design</text><text x="0" y="86" fill="#000000" font-size="5px" font-weight="bold" font-family="'Helvetica Neue', Helvetica, Arial-Unicode, Arial, Sans-serif">from the Noun Project</text></svg>